<?xml version="1.0" encoding="UTF-8" standalone="no"?>
<svg
   width="220"
   height="220"
   viewBox="0 0 220 220"
   aria-labelledby="title desc"
   version="1.1"
   id="svg12"
   sodipodi:docname="icon.svg"
   inkscape:export-filename="icon.svg"
   inkscape:export-xdpi="96"
   inkscape:export-ydpi="96"
   xmlns:inkscape="http://www.inkscape.org/namespaces/inkscape"
   xmlns:sodipodi="http://sodipodi.sourceforge.net/DTD/sodipodi-0.dtd"
   xmlns="http://www.w3.org/2000/svg"
   xmlns:svg="http://www.w3.org/2000/svg">
  <defs
     id="defs12" />
  <sodipodi:namedview
     id="namedview12"
     pagecolor="#ffffff"
     bordercolor="#000000"
     borderopacity="0.25"
     inkscape:showpageshadow="2"
     inkscape:pageopacity="0.0"
     inkscape:pagecheckerboard="0"
     inkscape:deskcolor="#d1d1d1"
     inkscape:export-bgcolor="#ffffffff">
    <inkscape:page
       x="0"
       y="0"
       width="220"
       height="220"
       id="page2"
       margin="0"
       bleed="0" />
  </sodipodi:namedview>
  <title
     id="title1">pdf-kozou アプリアイコン</title>
  <!-- <rect width="220" height="220" fill="#f9f7f2" opacity="0.4"/> -->
  <!-- 袴・着物本体（少し左右に広げて正方形にフィット） -->
  <path
     d="m 75,140 q -7,15 -17,70 h 104 q -10,-50 -17,-70 -7,-12 -17,-13 H 92 q -10,1 -17,13 z"
     fill="#1e40af"
     stroke="#0f172a"
     stroke-width="12"
     stroke-linejoin="round"
     id="path1" />
  <!-- 着物の襞（調整） -->
  <path
     d="m 85,140 -2,65"
     fill="transparent"
     stroke="#0f172a"
     stroke-width="4"
     id="path2" />
  <path
     d="m 105,140 -1,65"
     fill="transparent"
     stroke="#0f172a"
     stroke-width="3.5"
     id="path3" />
  <path
     d="m 125,140 3,65"
     fill="transparent"
     stroke="#0f172a"
     stroke-width="4"
     id="path4" />
  <!-- 帯（位置微調整） -->
  <rect
     x="65"
     y="162"
     width="90"
     height="12"
     rx="2"
     fill="#eab308"
     stroke="#0f172a"
     stroke-width="5"
     id="rect4" />
  <!-- 左袖 -->
  <path
     d="m 74,145 q -22,17 -26,35 l 4,18 19,5 z"
     fill="#1e40af"
     stroke="#0f172a"
     stroke-width="8"
     id="path5" />
  <!-- 右袖 -->
  <path
     d="m 146,145 q 22,17 26,35 l -4,18 -19,5 z"
     fill="#1e40af"
     stroke="#0f172a"
     stroke-width="8"
     id="path6" />
  <!-- 首 -->
  <rect
     x="85"
     y="128"
     width="50"
     height="20"
     rx="10"
     fill="#f8d9be"
     stroke="#0f172a"
     stroke-width="7"
     id="rect6" />
  <!-- 頭 -->
  <ellipse
     cx="110"
     cy="80"
     rx="58"
     ry="60"
     fill="#f8d9be"
     stroke="#0f172a"
     stroke-width="10"
     id="ellipse6" />
  <!-- 髪 -->
  <path
     d="m 52,40 c 3,-15 13,-22 26,-25 10,-5 24,-6 37,0 17,2 35,15 50,33 l -3,14 C 142,48 128,40 110,39 85,38 66,45 52,58 Z"
     fill="#1e293b"
     stroke="#0f172a"
     stroke-width="7"
     id="path7" />
  <!-- 耳 -->
  <ellipse
     cx="52"
     cy="80"
     rx="10"
     ry="14"
     fill="#f8d9be"
     stroke="#0f172a"
     stroke-width="5"
     id="ellipse7" />
  <ellipse
     cx="168"
     cy="80"
     rx="10"
     ry="14"
     fill="#f8d9be"
     stroke="#0f172a"
     stroke-width="5"
     id="ellipse8" />
  <!-- 目 -->
  <path
     d="m 74,70 c 8,-5 16,-6 24,0"
     fill="none"
     stroke="#1e293b"
     stroke-width="4"
     stroke-linecap="round"
     id="path8" />
  <path
     d="m 122,70 c 8,-5 16,-6 24,0"
     fill="none"
     stroke="#1e293b"
     stroke-width="4"
     stroke-linecap="round"
     id="path9" />
  <!-- 鼻 -->
  <path
     d="M 110,77 V 90"
     fill="none"
     stroke="#1e293b"
     stroke-width="3"
     stroke-linecap="round"
     id="path10" />
  <!-- 口 -->
  <path
     d="m 80,102 c 8,6 18,8 30,6 12,2 20,-2 28,-8"
     fill="none"
     stroke="#1e293b"
     stroke-width="3.2"
     stroke-linecap="round"
     id="path11" />
  <!-- 頰紅 -->
  <ellipse
     cx="74"
     cy="88"
     rx="8"
     ry="5"
     fill="#fda4af"
     opacity="0.7"
     id="ellipse11" />
  <ellipse
     cx="146"
     cy="88"
     rx="8"
     ry="5"
     fill="#fda4af"
     opacity="0.7"
     id="ellipse12" />
</svg>
